<?xml version="1.0" encoding="UTF-8"?>
<!-- Generator: visioncortex VTracer 0.6.5 -->
<svg version="1.1" xmlns="http://www.w3.org/2000/svg" width="512" height="512">
<path d="M0 0 C1.02 0.19 2.04 0.39 3.08 0.59 C62.63 12.29 120.28 44.88 157 94 C157.86 95.12 158.72 96.24 159.59 97.36 C181.85 126.68 197.85 160.66 205.81 196.62 C206 197.44 206.18 198.26 206.37 199.11 C210.04 216.87 211.56 234.51 211.44 252.62 C211.44 253.12 211.44 253.12 211.43 255.65 C211.35 272.05 210.38 287.9 207 304 C206.79 305.02 206.58 306.03 206.37 307.08 C197.56 348.53 178.5 386.82 151 419 C150.36 419.75 149.73 420.5 149.07 421.27 C137.25 434.77 124.51 447.44 110 458 C108.85 458.86 107.7 459.71 106.55 460.57 C98.36 466.61 89.84 471.97 81 477 C80.37 477.36 79.74 477.73 79.09 478.1 C41.47 499.63 -1.25 509.47 -44.31 509.38 C-45.32 509.37 -46.33 509.37 -47.37 509.37 C-107.44 509.2 -165.24 488.11 -211 449 C-211.76 448.35 -212.52 447.7 -213.3 447.04 C-225.87 436.02 -237.81 424.21 -247.72 410.73 C-249.03 408.95 -250.38 407.21 -251.73 405.46 C-273.86 376.53 -288.8 341.82 -296.25 306.31 C-296.37 305.73 -296.37 305.73 -297 302.75 C-300.26 286.55 -301.38 270.99 -301.31 254.5 C-301.31 253.53 -301.31 252.56 -301.31 251.56 C-301.25 236.86 -300.82 222.47 -298 208 C-297.81 206.98 -297.61 205.97 -297.41 204.92 C-290.65 170.48 -277.61 136.61 -257 108 C-256.57 107.4 -256.13 106.8 -255.69 106.17 C-241.18 86.17 -224.81 66.95 -205 52 C-204.34 51.49 -203.68 50.98 -203 50.45 C-191.53 41.61 -179.81 33.76 -167 27 C-166.08 26.51 -165.16 26.03 -164.21 25.52 C-140.91 13.36 -115.9 4.65 -90 0 C-89.15 -0.16 -88.29 -0.32 -87.41 -0.49 C-59.54 -5.52 -27.8 -5.36 0 0 Z " fill="#010101" transform="translate(301,3)"/>
<path d="M0 0 C70.62 0 141.24 0 214 0 C214 13.86 214 27.72 214 42 C199.81 42 185.62 42 171 42 C171 56.52 171 71.04 171 86 C199.71 86 228.42 86 258 86 C258 99.86 258 113.72 258 128 C229.29 128 200.58 128 171 128 C171 142.52 171 157.04 171 172 C185.19 172 199.38 172 214 172 C214 185.86 214 199.72 214 214 C143.05 214 72.1 214 -1 214 C-1 228.19 -1 242.38 -1 257 C-14.86 257 -28.72 257 -43 257 C-43 200.57 -43 144.14 -43 86 C-28.81 86 -14.62 86 0 86 C0 57.62 0 29.24 0 0 Z " fill="#000000" transform="translate(171,128)"/>
<path d="M0 0 C14.19 0 28.38 0 43 0 C43 56.76 43 113.52 43 172 C57.19 172 71.38 172 86 172 C86 186.19 86 200.38 86 215 C57.62 215 29.24 215 0 215 C0 144.05 0 73.1 0 0 Z " fill="#FEFEFE" transform="translate(84,214)"/>
<path d="M0 0 C71.28 0 142.56 0 216 0 C216 14.19 216 28.38 216 43 C144.72 43 73.44 43 0 43 C0 28.81 0 14.62 0 0 Z " fill="#FCFCFC" transform="translate(170,343)"/>
<path d="M0 0 C71.28 0 142.56 0 216 0 C216 14.19 216 28.38 216 43 C144.72 43 73.44 43 0 43 C0 28.81 0 14.62 0 0 Z " fill="#FEFEFE" transform="translate(170,84)"/>
<path d="M0 0 C14.19 0 28.38 0 43 0 C43 28.38 43 56.76 43 86 C14.62 86 -13.76 86 -43 86 C-43 71.81 -43 57.62 -43 43 C-28.81 43 -14.62 43 0 43 C0 28.81 0 14.62 0 0 Z " fill="#FDFDFD" transform="translate(386,127)"/>
<path d="M0 0 C28.38 0 56.76 0 86 0 C86 28.38 86 56.76 86 86 C71.81 86 57.62 86 43 86 C43 71.48 43 56.96 43 42 C28.81 42 14.62 42 0 42 C0 28.14 0 14.28 0 0 Z " fill="#FEFEFE" transform="translate(343,257)"/>
<path d="M0 0 C14.19 0 28.38 0 43 0 C43 28.38 43 56.76 43 86 C28.81 86 14.62 86 0 86 C0 57.62 0 29.24 0 0 Z " fill="#FDFDFD" transform="translate(127,127)"/>
<path d="M0 0 C13.86 0 27.72 0 42 0 C42 13.86 42 27.72 42 42 C28.14 42 14.28 42 0 42 C0 28.14 0 14.28 0 0 Z " fill="#FFFFFF" transform="translate(429,214)"/>
</svg>
